<svg xmlns="http://www.w3.org/2000/svg" viewBox="0 0 24 24"><path d="M21.495,13c0,0.234-0.054,1-0.748,1C20.257,14,20,13.349,20,13v-2.125C20,8.738,18.262,7,16.125,7c0,0-0.082,0-0.125,0
	c-0.442,0-0.858,0.101-1.236,0.273c-0.005,0.003-0.011,0.001-0.016,0.004c-2.845,1.54-3.526,0.112-5.131-0.212
	C9.606,7.062,9.21,7,9,7C8.565,7,8.155,7.097,7.782,7.263C7.781,7.262,7.781,7.262,7.78,7.261L5.813,8.166C5.496,7.479,4.806,7,4,7
	v2l-2,2.063L3.021,13H5c0.431-0.709,0.865-0.923,1.512-0.979L8,14.5V17h2v-4h4.502L14.5,13.004L17,15.5V17h2v-2.473
	c0.377,0.55,0.96,0.973,1.747,0.973c1.545,0,2.248-1.296,2.248-2.5H21.495z M6.5,10.25c-0.414,0-0.75-0.336-0.75-0.75
	c0-0.414,0.336-0.75,0.75-0.75S7.25,9.086,7.25,9.5C7.25,9.914,6.914,10.25,6.5,10.25z M8.5,12.25c-0.414,0-0.75-0.336-0.75-0.75
	c0-0.414,0.336-0.75,0.75-0.75s0.75,0.336,0.75,0.75C9.25,11.914,8.914,12.25,8.5,12.25z M9.5,9.25c-0.414,0-0.75-0.336-0.75-0.75
	c0-0.414,0.336-0.75,0.75-0.75s0.75,0.336,0.75,0.75C10.25,8.914,9.914,9.25,9.5,9.25z M11.5,12.25c-0.414,0-0.75-0.336-0.75-0.75
	c0-0.414,0.336-0.75,0.75-0.75s0.75,0.336,0.75,0.75C12.25,11.914,11.914,12.25,11.5,12.25z M12.5,10.25
	c-0.414,0-0.75-0.336-0.75-0.75c0-0.414,0.336-0.75,0.75-0.75s0.75,0.336,0.75,0.75C13.25,9.914,12.914,10.25,12.5,10.25z
	 M14.5,12.25c-0.414,0-0.75-0.336-0.75-0.75c0-0.414,0.336-0.75,0.75-0.75s0.75,0.336,0.75,0.75
	C15.25,11.914,14.914,12.25,14.5,12.25z M15.5,9.25c-0.414,0-0.75-0.336-0.75-0.75c0-0.414,0.336-0.75,0.75-0.75
	s0.75,0.336,0.75,0.75C16.25,8.914,15.914,9.25,15.5,9.25z M17.5,13.25c-0.414,0-0.75-0.336-0.75-0.75c0-0.414,0.336-0.75,0.75-0.75
	s0.75,0.336,0.75,0.75C18.25,12.914,17.914,13.25,17.5,13.25z M17.5,10.25c-0.414,0-0.75-0.336-0.75-0.75
	c0-0.414,0.336-0.75,0.75-0.75s0.75,0.336,0.75,0.75C18.25,9.914,17.914,10.25,17.5,10.25z"></path></svg>