<svg xmlns="http://www.w3.org/2000/svg" viewBox="0 0 24 24"><path d="M23,5V3H1v2h2.63c-0.952,1.452-1.489,3.578-1.604,5.995C2.025,10.995,2,11.777,2,12c0,7.094,2.686,9,6,9c10,0,14-3.542,14-8
	v-0.5c0-2.485-2.015-4.5-4.5-4.5c-1.77,0-3.286,1.031-4.021,2.517c-0.15-0.035-0.318-0.062-0.479-0.092V5H23z M17.5,10
	c1.292,0,2.408,0.607,3.015,1.5h-0.749v0.003c-0.005,0-0.01-0.003-0.016-0.003c-0.414,0-0.75,0.336-0.75,0.75
	c0,0.414,0.336,0.75,0.75,0.75c0.006,0,0.01-0.003,0.016-0.003V13H21c0,1.657-1.567,3-3.5,3S14,14.657,14,13h1.234v-0.003
	c0.005,0,0.01,0.003,0.016,0.003c0.414,0,0.75-0.336,0.75-0.75c0-0.414-0.336-0.75-0.75-0.75c-0.006,0-0.01,0.003-0.016,0.003V11.5
	h-0.749C15.092,10.607,16.208,10,17.5,10z M6,10.01V5h4.63c-0.828,1.263-1.341,3.036-1.537,5.068C8.183,10.036,7.156,10.018,6,10.01
	z M16.5,13.5c0-0.276,0.448-0.5,1-0.5s1,0.224,1,0.5c0,0.276-0.448,0.5-1,0.5S16.5,13.776,16.5,13.5z"></path></svg>