<svg xmlns="http://www.w3.org/2000/svg" viewBox="0 0 24 24"><path d="M21.964,16L22,16.02V18H10c-1.851,0-3.449-1.018-4.314-2.513L5.67,15.5L2,9V8h2V6h1.5v2.071
	c0.322,0.083,0.612,0.243,0.849,0.462l1.892,1.794C8.967,7.828,11.268,6,14,6c3.314,0,6,2.686,6,6c0,0.893-0.2,1.738-0.55,2.5
	h-3.594c-0.442,0-1.559-0.055-2.367-0.563c-0.9-0.566-1.484-1.468-1.488-2.297c-0.001-0.162,0.023-1,0.586-1.566
	c0.378-0.38,0.95-0.573,1.699-0.573c0.909,0,1.215,0.515,1.215,0.75c0,0.316-0.104,0.419-0.138,0.454
	c-0.262,0.262-0.942,0.262-1.362,0.261l0.048,1.5c0.55-0.004,1.672,0.002,2.375-0.7C16.806,11.382,17,10.873,17,10.25
	C17,9.144,15.984,8,14.285,8c-1.163,0-2.092,0.342-2.762,1.016c-0.957,0.962-1.025,2.258-1.023,2.632
	c0.007,1.35,0.846,2.713,2.189,3.559C13.788,15.896,15.145,16,15.854,16H21.964z"></path></svg>